<svg width="15.000000" height="21.000000" viewBox="0 0 15 21" fill="none" xmlns="http://www.w3.org/2000/svg" xmlns:xlink="http://www.w3.org/1999/xlink">
	<desc>
			Created with Pixso.
	</desc>
	<defs/>
	<path id="Vector" d="M14.15 17.37L9.69 12.5C10.69 11.45 11.25 10.08 11.25 8.62C11.25 7.12 10.66 5.7 9.6 4.64C8.54 3.58 7.12 3 5.62 3C4.12 3 2.71 3.58 1.64 4.64C0.58 5.71 0 7.12 0 8.62C0 10.12 0.58 11.54 1.64 12.6C2.71 13.66 4.12 14.25 5.62 14.25C6.92 14.25 8.14 13.81 9.14 13.01L13.59 17.87C13.67 17.95 13.77 18 13.87 18C13.96 18 14.05 17.96 14.12 17.9C14.28 17.76 14.29 17.52 14.15 17.37L14.15 17.37ZM0.75 8.62C0.75 5.93 2.93 3.75 5.62 3.75C8.31 3.75 10.5 5.93 10.5 8.62C10.5 11.31 8.31 13.5 5.62 13.5C2.93 13.5 0.75 11.31 0.75 8.62Z" fill="#000000" fill-opacity="1.000000" fill-rule="nonzero"/>
</svg>
